<svg xmlns="http://www.w3.org/2000/svg" width="268.333" height="435.304" viewBox="318.568 103.797 268.333 435.304">
  <g>
    <path d="M 363.322 113.647 C 382.274 114.194 410.399 111.797 453.697 111.797 C 484.848 111.797 473.47 119.583 459.87 140.383 C 446.27 161.183 449.524 202.266 450.27 228.383 C 451.015 254.5 468.11 275.053 474.36 282.382 C 498.869 273.909 487.609 253.906 516.465 242.972 C 579.143 215.74 599.471 383.167 555.427 390.227 C 540.57 392.609 527.446 393.153 516.317 394.261 C 517.564 402.518 518.187 411.124 518 420.2 C 516.4 497.8 474.109 531.101 474.109 531.101 C 474.109 531.101 370.909 531.101 370.909 531.101 C 370.909 531.101 329.47 510.783 327.07 435.583 C 326.318 412.032 323.87 378.783 343.87 335.583 C 363.87 292.383 391.918 284.678 390.27 229.183 C 389.522 204.019 392.336 164.906 382.27 149.983 C 360.013 116.989 344.371 113.099 363.322 113.647 Z M 488.785 317.308 C 493.935 329.19 502.47 348.32 508.062 364.213 C 509.931 370.891 534.426 364.069 541.028 362.995 C 564.648 357.798 559.138 262.481 516.465 281.299 C 503.565 286.26 485.117 308.436 488.785 317.308 Z" fill="#4f8cff" />
  </g>
</svg>
